# File created by Blade
# Date/Time:  Tue Jan 27 20:12:12 2015
#---------------------------------------------------------
:version 1.10
:name HOM
:units
  mass 1.0
  length 1.000000
  angle deg
:documentation
     Acclaim Skeleton File
:root
   axis xyz
   order TX TY TZ RX RY RZ
   position 0.000000 0.000000 0.000000
   orientation 0 0 0
:bonedata
   begin
      id 1
      name Spine_dum
      direction 0.000000 1.000000 0.000000
      length 6.116652
      axis 0.0 0.0 0.0 xyz
   end
   begin
      id 2
      name LeftUpLeg_dum
      direction 1.000000 0.000000 0.000000
      length 4.711765
      axis 0.0 0.0 0.0 xyz
   end
   begin
      id 3
      name RightUpLeg_dum
      direction -1.000000 0.000000 0.000000
      length 4.711765
      axis 0.0 0.0 0.0 xyz
   end
   begin
      id 4
      name Spine
      direction 0.000000 1.000000 0.000000
      length 0.000000
      axis 0.0 0.0 0.0 xyz
      dof rx ry rz
   end
   begin
      id 5
      name Spine_dum1
      direction 0.000000 1.000000 0.000000
      length 15.225563
      axis 0.0 0.0 0.0 xyz
   end
   begin
      id 6
      name Spine_dum2
      direction 0.000000 1.000000 0.000000
      length 8.977654
      axis 0.0 0.0 0.0 xyz
   end
   begin
      id 7
      name Spine_dum3
      direction 0.000000 1.000000 0.000000
      length 8.977654
      axis 0.0 0.0 0.0 xyz
   end
   begin
      id 8
      name Head
      direction 0.000000 1.000000 0.000000
      length 4.527550
      axis 0.0 0.0 0.0 xyz
      dof rx ry rz
   end
   begin
      id 9
      name LeftShoulder
      direction 1.000000 0.000000 0.000000
      length 7.110130
      axis 0.0 0.0 -90.0 xyz
      dof rx ry rz
   end
   begin
      id 10
      name LeftArm
      direction 1.000000 0.000000 0.000000
      length 10.398341
      axis 0.0 0.0 -90.0 xyz
      dof rx ry rz
   end
   begin
      id 11
      name LeftForeArm
      direction 1.000000 0.000000 0.000000
      length 8.888997
      axis 0.0 0.0 -90.0 xyz
      dof ry rz rx
   end
   begin
      id 12
      name LeftHand
      direction 0.000000 0.000000 0.000000
      length 0.000000
      axis 0.0 0.0 -90.0 xyz
      dof rx ry rz
   end
   begin
      id 13
      name LeftHand_dum1
      direction 0.000000 0.000000 0.000000
      length 0.000000
      axis 0.0 0.0 -90.0 xyz
   end
   begin
      id 14
      name LeftHand_dum2
      direction 1.000000 0.000000 0.000000
      length 3.937000
      axis 0.0 0.0 -90.0 xyz
   end
   begin
      id 15
      name LeftHandThumb1
      direction 0.000000 0.000000 1.000000
      length 3.937000
      axis 0.0 0.0 -90.0 xyz
      dof rx rz ry
   end
   begin
      id 16
      name RightShoulder
      direction -1.000000 0.000000 0.000000
      length 7.110130
      axis 0.0 0.0 90.0 xyz
      dof rx ry rz
   end
   begin
      id 17
      name RightArm
      direction -1.000000 0.000000 0.000000
      length 10.398341
      axis 0.0 0.0 90.0 xyz
      dof rx ry rz
   end
   begin
      id 18
      name RightForeArm
      direction -1.000000 0.000000 0.000000
      length 8.888997
      axis 0.0 0.0 90.0 xyz
      dof ry rz rx
   end
   begin
      id 19
      name RightHand
      direction 0.000000 0.000000 0.000000
      length 0.000000
      axis 0.0 0.0 90.0 xyz
      dof rx ry rz
   end
   begin
      id 20
      name RightHand_dum1
      direction 0.000000 0.000000 0.000000
      length 0.000000
      axis 0.0 0.0 90.0 xyz
   end
   begin
      id 21
      name RightHand_dum2
      direction -1.000000 0.000000 0.000000
      length 3.937000
      axis 0.0 0.0 90.0 xyz
   end
   begin
      id 22
      name RightHandThumb1
      direction 0.000000 0.000000 1.000000
      length 3.937000
      axis 0.0 0.0 90.0 xyz
      dof rx rz ry
   end
   begin
      id 23
      name LeftUpLeg
      direction 0.000000 -1.000000 0.000000
      length 15.510451
      axis 0.0 0.0 0.0 xyz
      dof rx ry rz
   end
   begin
      id 24
      name LeftLeg
      direction 0.000000 -1.000000 0.000000
      length 14.858061
      axis 0.0 0.0 0.0 xyz
      dof rx ry rz
   end
   begin
      id 25
      name LeftFoot
      direction 0.000000 -0.258819 0.965926
      length 5.128852
      axis 15.0 0.0 0.0 xyz
      dof rx ry rz
   end
   begin
      id 26
      name LeftToeBase
      direction 0.000000 0.000000 1.000000
      length 2.952750
      axis 0.0 0.0 0.0 xyz
      dof rx ry rz
   end
   begin
      id 27
      name RightUpLeg
      direction 0.000000 -1.000000 0.000000
      length 15.510451
      axis 0.0 0.0 0.0 xyz
      dof rx ry rz
   end
   begin
      id 28
      name RightLeg
      direction 0.000000 -1.000000 0.000000
      length 14.858061
      axis 0.0 0.0 0.0 xyz
      dof rx ry rz
   end
   begin
      id 29
      name RightFoot
      direction 0.000000 -0.258819 0.965926
      length 5.128852
      axis 15.0 0.0 0.0 xyz
      dof rx ry rz
   end
   begin
      id 30
      name RightToeBase
      direction 0.000000 0.000000 1.000000
      length 2.952750
      axis 0.0 0.0 0.0 xyz
      dof rx ry rz
   end
:hierarchy
   begin
      root Spine_dum LeftUpLeg_dum RightUpLeg_dum
      Spine_dum Spine
      LeftUpLeg_dum LeftUpLeg
      RightUpLeg_dum RightUpLeg
      Spine Spine_dum1 Spine_dum2 Spine_dum3
      Spine_dum1 Head
      Spine_dum2 LeftShoulder
      Spine_dum3 RightShoulder
      LeftShoulder LeftArm
      LeftArm LeftForeArm
      LeftForeArm LeftHand
      LeftHand LeftHand_dum1 LeftHand_dum2
      LeftHand_dum1 LeftHandThumb1
      RightShoulder RightArm
      RightArm RightForeArm
      RightForeArm RightHand
      RightHand RightHand_dum1 RightHand_dum2
      RightHand_dum1 RightHandThumb1
      LeftUpLeg LeftLeg
      LeftLeg LeftFoot
      LeftFoot LeftToeBase
      RightUpLeg RightLeg
      RightLeg RightFoot
      RightFoot RightToeBase
   end

# File created by Blade
# Date/Time:  Tue Jan 27 20:12:02 2015
# Frame Rate: 120.000 fps
#------------------------------------------------------
:FULLY-SPECIFIED
:DEGREES
673
root 8.104364 32.321431 -3.979311 4.894541 24.028103 0.880947
Spine 2.147314 -2.730112 -3.929123
Head 16.054298 -15.230504 2.099609
LeftShoulder -15.088131 -2.117171 29.035803
LeftArm -11.658619 -34.540313 -70.886563
LeftForeArm -3.782661 0.000000 95.287372
LeftHand 17.087872 -0.000000 18.501203
LeftHandThumb1 -26.253704 0.000000 33.147579
RightShoulder -23.373663 -25.149675 -22.404156
RightArm 7.973851 -29.889549 89.030404
RightForeArm -24.464369 -0.000000 103.678482
RightHand 17.343196 -0.000000 0.339525
RightHandThumb1 -24.326973 -0.000000 -32.862282
LeftUpLeg 0.801803 -14.414906 -6.681728
LeftLeg -4.339481 -0.000000 0.000000
LeftFoot -6.987732 6.457226 -12.928239
LeftToeBase 22.814557 -0.000000 -0.000000
RightUpLeg -11.539661 6.648413 7.050413
RightLeg 125.743387 -0.000000 -0.000000
RightFoot -20.837747 -8.506633 26.071660
RightToeBase 11.016187 -0.000000 -0.000000
674
root 8.096543 32.322798 -3.984985 4.918186 23.964245 0.853978
Spine 2.160163 -2.700302 -3.947757
Head 16.067028 -15.202005 2.114507
LeftShoulder -15.093691 -2.134495 29.052152
LeftArm -11.679959 -34.509561 -70.764855
LeftForeArm -3.896503 -0.000000 95.245266
LeftHand 17.133959 0.000000 18.575683
LeftHandThumb1 -26.253704 0.000000 33.147579
RightShoulder -23.352844 -25.155307 -22.390088
RightArm 7.991256 -29.875750 89.047068
RightForeArm -24.478111 -0.000000 103.667236
RightHand 17.350515 -0.000000 0.341511
RightHandThumb1 -24.326973 -0.000000 -32.862282
LeftUpLeg 0.764942 -14.394576 -6.647122
LeftLeg -4.360397 -0.000000 0.000000
LeftFoot -6.998635 6.530266 -12.913852
LeftToeBase 22.873195 -0.000000 -0.000000
RightUpLeg -11.630190 6.682693 7.019517
RightLeg 126.531164 -0.000000 -0.000000
RightFoot -20.714944 -8.303775 26.129904
RightToeBase 11.029493 -0.000000 -0.000000
675
root 8.090077 32.323907 -3.990826 4.939342 23.908275 0.839570
Spine 2.182355 -2.679050 -3.981915
Head 16.085079 -15.185353 2.135109
LeftShoulder -15.076525 -2.115487 29.074908
LeftArm -11.678207 -34.548896 -70.690542
LeftForeArm -3.993846 -0.000000 95.223333
LeftHand 17.118193 -0.000000 18.494156
LeftHandThumb1 -26.253704 0.000000 33.147579
RightShoulder -23.335168 -25.149719 -22.373740
RightArm 7.994300 -29.864149 89.072084
RightForeArm -24.493110 -0.000000 103.651450
RightHand 17.337565 -0.000000 0.324885
RightHandThumb1 -24.326973 -0.000000 -32.862282
LeftUpLeg 0.733695 -14.392644 -6.626584
LeftLeg -4.380750 -0.000000 0.000000
LeftFoot -6.995998 6.607397 -12.888656
LeftToeBase 22.786252 -0.000000 -0.000000
RightUpLeg -11.729566 6.746845 6.969693
RightLeg 127.121357 -0.000000 -0.000000
RightFoot -20.574424 -8.162233 26.108235
RightToeBase 10.986691 -0.000000 -0.000000
676
root 8.084234 32.324370 -3.995426 4.945297 23.848584 0.831703
Spine 2.223951 -2.662470 -4.022996
Head 16.111404 -15.171060 2.132733
LeftShoulder -15.077762 -2.129149 29.105442
LeftArm -11.703995 -34.539066 -70.581900
LeftForeArm -4.085281 -0.000000 95.183830
LeftHand 17.141099 0.000000 18.423704
LeftHandThumb1 -26.253704 0.000000 33.147579
RightShoulder -23.307311 -25.069598 -22.413489
RightArm 7.909331 -29.863296 89.155586
RightForeArm -24.511868 -0.000000 103.619630
RightHand 17.334917 0.000000 0.331830
RightHandThumb1 -24.326973 -0.000000 -32.862282
LeftUpLeg 0.714194 -14.323463 -6.618419
LeftLeg -4.376651 -0.000000 0.000000
LeftFoot -7.006751 6.617280 -12.849566
LeftToeBase 22.828785 -0.000000 -0.000000
RightUpLeg -11.840865 6.866481 6.927915
RightLeg 127.531735 -0.000000 -0.000000
RightFoot -20.352634 -8.067224 26.188071
RightToeBase 11.159331 -0.000000 -0.000000
677
root 8.080889 32.324888 -3.998423 4.939405 23.801799 0.831245
Spine 2.269865 -2.662524 -4.064130
Head 16.178159 -15.148796 2.102947
LeftShoulder -15.073986 -2.043122 29.103194
LeftArm -11.623469 -34.542262 -70.529658
LeftForeArm -4.178176 0.000000 95.143381
LeftHand 17.173209 -0.000000 18.392907
LeftHandThumb1 -26.253704 0.000000 33.147579
RightShoulder -23.293241 -25.096494 -22.408801
RightArm 7.933201 -29.856325 89.182211
RightForeArm -24.528794 -0.000000 103.607797
RightHand 17.289054 -0.000000 0.402004
RightHandThumb1 -24.326973 -0.000000 -32.862282
LeftUpLeg 0.715512 -14.295339 -6.621572
LeftLeg -4.382488 -0.000000 0.000000
LeftFoot -7.002580 6.642549 -12.906319
LeftToeBase 22.927333 -0.000000 -0.000000
RightUpLeg -11.951863 7.031950 6.875333
RightLeg 127.741259 -0.000000 -0.000000
RightFoot -20.041809 -8.000235 26.168302
RightToeBase 11.189892 -0.000000 -0.000000
678
root 8.076806 32.326172 -4.000556 4.934892 23.759029 0.834542
Spine 2.310869 -2.662315 -4.123135
Head 16.273317 -15.120787 2.094916
LeftShoulder -15.071023 -1.886836 29.087193
LeftArm -11.442491 -34.571173 -70.537575
LeftForeArm -4.231524 -0.000000 95.110969
LeftHand 17.198467 -0.000000 18.314571
LeftHandThumb1 -26.253704 0.000000 33.147579
RightShoulder -23.283896 -25.051028 -22.411174
RightArm 7.885572 -29.861409 89.229337
RightForeArm -24.514180 -0.000000 103.578699
RightHand 17.262041 -0.000000 0.369714
RightHandThumb1 -24.326973 -0.000000 -32.862282
LeftUpLeg 0.714153 -14.274805 -6.626791
LeftLeg -4.368998 -0.000000 0.000000
LeftFoot -6.992254 6.665609 -12.954059
LeftToeBase 22.629665 -0.000000 -0.000000
RightUpLeg -12.084149 7.225028 6.796543
RightLeg 127.780665 -0.000000 -0.000000
RightFoot -19.786260 -7.877109 26.096612
RightToeBase 11.456262 -0.000000 -0.000000
679
root 8.073503 32.325945 -4.002033 4.906547 23.757388 0.833818
Spine 2.382427 -2.709007 -4.162741
Head 16.359763 -15.097063 2.046890
LeftShoulder -15.063650 -1.884108 29.099335
LeftArm -11.428082 -34.588310 -70.449624
LeftForeArm -4.300251 -0.000000 95.069818
LeftHand 17.237189 0.000000 18.215144
LeftHandThumb1 -26.253704 0.000000 33.147579
RightShoulder -23.274280 -25.000583 -22.440761
RightArm 7.825521 -29.865648 89.294573
RightForeArm -24.493096 0.000000 103.544962
RightHand 17.354537 0.000000 0.331728
RightHandThumb1 -24.326973 -0.000000 -32.862282
LeftUpLeg 0.723647 -14.255325 -6.626915
LeftLeg -4.340326 -0.000000 0.000000
LeftFoot -7.001633 6.645375 -12.979308
LeftToeBase 22.604173 -0.000000 -0.000000
RightUpLeg -12.183598 7.391574 6.727645
RightLeg 127.639539 -0.000000 -0.000000
RightFoot -19.690184 -7.731549 25.976209
RightToeBase 10.988179 -0.000000 -0.000000
680
root 8.073154 32.324843 -4.002463 4.893908 23.743664 0.853378
Spine 2.435756 -2.743263 -4.222476
Head 16.448720 -15.060695 1.999818
LeftShoulder -15.051068 -1.911977 29.126054
LeftArm -11.475001 -34.553309 -70.321939
LeftForeArm -4.402286 -0.000000 95.038460
LeftHand 17.274482 -0.000000 18.285994
LeftHandThumb1 -26.253704 0.000000 33.147579
RightShoulder -23.291854 -25.009189 -22.420684
RightArm 7.835393 -29.873979 89.287292
RightForeArm -24.457903 -0.000000 103.534247
RightHand 17.420910 -0.000000 0.307150
RightHandThumb1 -24.326973 -0.000000 -32.862282
LeftUpLeg 0.742881 -14.247324 -6.646183
LeftLeg -4.348738 -0.000000 0.000000
LeftFoot -7.005168 6.647523 -12.905612
LeftToeBase 22.805753 -0.000000 -0.000000
RightUpLeg -12.313452 7.621863 6.646879
RightLeg 127.345816 -0.000000 -0.000000
RightFoot -19.656950 -7.423864 25.927326
RightToeBase 11.724523 -0.000000 -0.000000
681
root 8.073524 32.322892 -3.999827 4.874097 23.747658 0.869482
Spine 2.477079 -2.802273 -4.268683
Head 16.565781 -15.018979 1.926215
LeftShoulder -15.062649 -1.937198 29.150255
LeftArm -11.513156 -34.494535 -70.208702
LeftForeArm -4.478486 -0.000000 95.005383
LeftHand 17.254335 0.000000 18.286617
LeftHandThumb1 -26.253704 0.000000 33.147579
RightShoulder -23.310782 -25.055595 -22.415704
RightArm 7.867864 -29.901366 89.286390
RightForeArm -24.459657 0.000000 103.521153
RightHand 17.500271 0.000000 0.273542
RightHandThumb1 -24.326973 -0.000000 -32.862282
LeftUpLeg 0.784983 -14.295387 -6.663155
LeftLeg -4.358447 -0.000000 0.000000
LeftFoot -7.057728 6.662260 -12.907374
LeftToeBase 23.110212 -0.000000 -0.000000
RightUpLeg -12.431485 7.878809 6.568591
RightLeg 126.884375 -0.000000 -0.000000
RightFoot -19.586653 -7.469925 25.995281
RightToeBase 10.373172 -0.000000 -0.000000
682
root 8.077514 32.321098 -3.998654 4.846439 23.757702 0.890825
Spine 2.530096 -2.885121 -4.311422
Head 16.682944 -14.965040 1.850251
LeftShoulder -15.071711 -1.943731 29.151458
LeftArm -11.570778 -34.417749 -70.063031
LeftForeArm -4.574434 -0.000000 95.002462
LeftHand 17.265254 -0.000000 18.364290
LeftHandThumb1 -26.253704 0.000000 33.147579
RightShoulder -23.308645 -25.029570 -22.439447
RightArm 7.837404 -29.931042 89.293785
RightForeArm -24.473616 -0.000000 103.525115
RightHand 17.478243 -0.000000 0.212839
RightHandThumb1 -24.326973 -0.000000 -32.862282
LeftUpLeg 0.830123 -14.282561 -6.692475
LeftLeg -4.370831 -0.000000 0.000000
LeftFoot -7.004666 6.598237 -13.093654
LeftToeBase 22.608993 -0.000000 -0.000000
RightUpLeg -12.550790 8.128609 6.472475
RightLeg 126.262578 -0.000000 -0.000000
RightFoot -19.476829 -7.486436 26.027001
RightToeBase 10.239597 -0.000000 -0.000000
683
root 8.079745 32.319229 -3.996301 4.822718 23.749834 0.906675
Spine 2.569224 -2.943535 -4.345177
Head 16.806659 -14.911640 1.750046
LeftShoulder -15.081913 -1.959800 29.122797
LeftArm -11.578478 -34.415353 -69.938921
LeftForeArm -4.577504 0.000000 94.989986
LeftHand 17.286717 -0.000000 18.327056
LeftHandThumb1 -26.253704 0.000000 33.147579
RightShoulder -23.337250 -25.107684 -22.408715
RightArm 7.928129 -29.954248 89.240922
RightForeArm -24.501009 -0.000000 103.539979
RightHand 17.490497 0.000000 0.216804
RightHandThumb1 -24.326973 -0.000000 -32.862282
LeftUpLeg 0.872708 -14.274054 -6.712786
LeftLeg -4.382309 -0.000000 0.000000
LeftFoot -7.044508 6.580052 -12.995374
LeftToeBase 23.144600 -0.000000 -0.000000
RightUpLeg -12.684896 8.479106 6.369858
RightLeg 125.521407 -0.000000 -0.000000
RightFoot -19.253372 -7.369721 26.146099
RightToeBase 10.338307 -0.000000 -0.000000
